<mxfile host="app.diagrams.net" agent="Mozilla/5.0 (Windows NT 10.0; Win64; x64) AppleWebKit/537.36 (KHTML, like Gecko) Chrome/128.0.0.0 YaBrowser/24.10.0.0 Safari/537.36" version="24.8.4" pages="2">
  <diagram name="Страница — 1" id="LvqfjD2M8qzksCrtMziz">
    <mxGraphModel dx="1195" dy="1906" grid="1" gridSize="10" guides="1" tooltips="1" connect="1" arrows="1" fold="1" page="1" pageScale="1" pageWidth="827" pageHeight="1169" math="0" shadow="0">
      <root>
        <mxCell id="0" />
        <mxCell id="1" parent="0" />
        <mxCell id="y4YscZzIlFFjTKctuAkd-9" value="" style="endArrow=diamondThin;endFill=1;endSize=24;html=1;rounded=0;exitX=1;exitY=0.222;exitDx=0;exitDy=0;entryX=0.007;entryY=0.385;entryDx=0;entryDy=0;entryPerimeter=0;exitPerimeter=0;" parent="1" source="y4YscZzIlFFjTKctuAkd-34" target="y4YscZzIlFFjTKctuAkd-39" edge="1">
          <mxGeometry width="160" relative="1" as="geometry">
            <mxPoint x="280" y="350" as="sourcePoint" />
            <mxPoint x="369.02" y="144.99199999999996" as="targetPoint" />
            <Array as="points" />
          </mxGeometry>
        </mxCell>
        <mxCell id="y4YscZzIlFFjTKctuAkd-21" value="Стирка" style="rounded=0;whiteSpace=wrap;html=1;" parent="1" vertex="1">
          <mxGeometry x="270" y="-400" width="120" height="60" as="geometry" />
        </mxCell>
        <mxCell id="y4YscZzIlFFjTKctuAkd-33" value="Комната" style="swimlane;fontStyle=1;align=center;verticalAlign=top;childLayout=stackLayout;horizontal=1;startSize=26;horizontalStack=0;resizeParent=1;resizeParentMax=0;resizeLast=0;collapsible=1;marginBottom=0;whiteSpace=wrap;html=1;" parent="1" vertex="1">
          <mxGeometry x="414" y="-50" width="160" height="80" as="geometry">
            <mxRectangle x="70" y="97" width="90" height="30" as="alternateBounds" />
          </mxGeometry>
        </mxCell>
        <mxCell id="y4YscZzIlFFjTKctuAkd-34" value="+ student: string&lt;div&gt;+ room: integer&lt;/div&gt;&lt;div&gt;+ floor: integer&lt;/div&gt;" style="text;strokeColor=none;fillColor=none;align=left;verticalAlign=top;spacingLeft=4;spacingRight=4;overflow=hidden;rotatable=0;points=[[0,0.5],[1,0.5]];portConstraint=eastwest;whiteSpace=wrap;html=1;" parent="y4YscZzIlFFjTKctuAkd-33" vertex="1">
          <mxGeometry y="26" width="160" height="54" as="geometry" />
        </mxCell>
        <mxCell id="y4YscZzIlFFjTKctuAkd-39" value="Общежитие" style="swimlane;fontStyle=0;childLayout=stackLayout;horizontal=1;startSize=26;fillColor=none;horizontalStack=0;resizeParent=1;resizeParentMax=0;resizeLast=0;collapsible=1;marginBottom=0;whiteSpace=wrap;html=1;" parent="1" vertex="1">
          <mxGeometry x="630" y="-40" width="140" height="70" as="geometry">
            <mxRectangle x="370" y="110" width="110" height="30" as="alternateBounds" />
          </mxGeometry>
        </mxCell>
        <mxCell id="y4YscZzIlFFjTKctuAkd-40" value="+ floor: integer&lt;div&gt;+ name: string&lt;/div&gt;" style="text;strokeColor=none;fillColor=none;align=left;verticalAlign=top;spacingLeft=4;spacingRight=4;overflow=hidden;rotatable=0;points=[[0,0.5],[1,0.5]];portConstraint=eastwest;whiteSpace=wrap;html=1;" parent="y4YscZzIlFFjTKctuAkd-39" vertex="1">
          <mxGeometry y="26" width="140" height="44" as="geometry" />
        </mxCell>
        <mxCell id="y4YscZzIlFFjTKctuAkd-43" value="Бытовые дела" style="rounded=0;whiteSpace=wrap;html=1;" parent="1" vertex="1">
          <mxGeometry x="434" y="-250" width="120" height="60" as="geometry" />
        </mxCell>
        <mxCell id="y4YscZzIlFFjTKctuAkd-47" value="cписок дел" style="endArrow=diamondThin;endSize=16;endFill=1;html=1;rounded=0;exitX=0.5;exitY=1;exitDx=0;exitDy=0;entryX=0.5;entryY=0;entryDx=0;entryDy=0;" parent="1" source="y4YscZzIlFFjTKctuAkd-43" target="y4YscZzIlFFjTKctuAkd-33" edge="1">
          <mxGeometry x="-0.5714" y="16" width="160" relative="1" as="geometry">
            <mxPoint x="130" y="370" as="sourcePoint" />
            <mxPoint x="494" y="-190" as="targetPoint" />
            <mxPoint as="offset" />
            <Array as="points" />
          </mxGeometry>
        </mxCell>
        <mxCell id="y4YscZzIlFFjTKctuAkd-52" value="Студент" style="swimlane;fontStyle=0;childLayout=stackLayout;horizontal=1;startSize=26;fillColor=none;horizontalStack=0;resizeParent=1;resizeParentMax=0;resizeLast=0;collapsible=1;marginBottom=0;whiteSpace=wrap;html=1;" parent="1" vertex="1">
          <mxGeometry x="424" y="150" width="140" height="52" as="geometry" />
        </mxCell>
        <mxCell id="y4YscZzIlFFjTKctuAkd-54" value="+student: string" style="text;strokeColor=none;fillColor=none;align=left;verticalAlign=top;spacingLeft=4;spacingRight=4;overflow=hidden;rotatable=0;points=[[0,0.5],[1,0.5]];portConstraint=eastwest;whiteSpace=wrap;html=1;" parent="y4YscZzIlFFjTKctuAkd-52" vertex="1">
          <mxGeometry y="26" width="140" height="26" as="geometry" />
        </mxCell>
        <mxCell id="y4YscZzIlFFjTKctuAkd-57" value="" style="endArrow=diamondThin;endFill=1;endSize=24;html=1;rounded=0;exitX=0.429;exitY=0;exitDx=0;exitDy=0;exitPerimeter=0;entryX=0.414;entryY=1;entryDx=0;entryDy=0;entryPerimeter=0;" parent="1" source="y4YscZzIlFFjTKctuAkd-58" target="y4YscZzIlFFjTKctuAkd-40" edge="1">
          <mxGeometry width="160" relative="1" as="geometry">
            <mxPoint x="700" y="130" as="sourcePoint" />
            <mxPoint x="510" y="140" as="targetPoint" />
          </mxGeometry>
        </mxCell>
        <mxCell id="y4YscZzIlFFjTKctuAkd-58" value="Персонал" style="swimlane;fontStyle=0;childLayout=stackLayout;horizontal=1;startSize=26;fillColor=none;horizontalStack=0;resizeParent=1;resizeParentMax=0;resizeLast=0;collapsible=1;marginBottom=0;whiteSpace=wrap;html=1;" parent="1" vertex="1">
          <mxGeometry x="630" y="150" width="140" height="52" as="geometry" />
        </mxCell>
        <mxCell id="y4YscZzIlFFjTKctuAkd-59" value="+post: string" style="text;strokeColor=none;fillColor=none;align=left;verticalAlign=top;spacingLeft=4;spacingRight=4;overflow=hidden;rotatable=0;points=[[0,0.5],[1,0.5]];portConstraint=eastwest;whiteSpace=wrap;html=1;" parent="y4YscZzIlFFjTKctuAkd-58" vertex="1">
          <mxGeometry y="26" width="140" height="26" as="geometry" />
        </mxCell>
        <mxCell id="lZRZO1sQGOBONxikhXFa-5" style="edgeStyle=orthogonalEdgeStyle;rounded=0;orthogonalLoop=1;jettySize=auto;html=1;entryX=0.5;entryY=0;entryDx=0;entryDy=0;endArrow=block;endFill=0;strokeWidth=1;endSize=24;" parent="1" source="zwJVkvs1Xq9DrfwiGJbF-1" target="y4YscZzIlFFjTKctuAkd-43" edge="1">
          <mxGeometry relative="1" as="geometry" />
        </mxCell>
        <mxCell id="zwJVkvs1Xq9DrfwiGJbF-1" value="УБорка кухни" style="rounded=0;whiteSpace=wrap;html=1;" parent="1" vertex="1">
          <mxGeometry x="434" y="-400" width="120" height="60" as="geometry" />
        </mxCell>
        <mxCell id="zwJVkvs1Xq9DrfwiGJbF-2" value="Смена постельного&lt;div&gt;&amp;nbsp;белья&lt;/div&gt;" style="rounded=0;whiteSpace=wrap;html=1;" parent="1" vertex="1">
          <mxGeometry x="600" y="-400" width="120" height="60" as="geometry" />
        </mxCell>
        <mxCell id="zwJVkvs1Xq9DrfwiGJbF-3" value="" style="endArrow=none;html=1;rounded=0;entryX=0.583;entryY=1.05;entryDx=0;entryDy=0;entryPerimeter=0;exitX=0.5;exitY=0;exitDx=0;exitDy=0;edgeStyle=orthogonalEdgeStyle;" parent="1" source="y4YscZzIlFFjTKctuAkd-43" target="y4YscZzIlFFjTKctuAkd-21" edge="1">
          <mxGeometry width="50" height="50" relative="1" as="geometry">
            <mxPoint x="390" y="-250" as="sourcePoint" />
            <mxPoint x="440" y="-300" as="targetPoint" />
          </mxGeometry>
        </mxCell>
        <mxCell id="zwJVkvs1Xq9DrfwiGJbF-6" value="" style="endArrow=none;html=1;rounded=0;exitX=0.5;exitY=0;exitDx=0;exitDy=0;entryX=0.5;entryY=1;entryDx=0;entryDy=0;edgeStyle=orthogonalEdgeStyle;" parent="1" source="y4YscZzIlFFjTKctuAkd-43" target="zwJVkvs1Xq9DrfwiGJbF-2" edge="1">
          <mxGeometry width="50" height="50" relative="1" as="geometry">
            <mxPoint x="390" y="-250" as="sourcePoint" />
            <mxPoint x="440" y="-300" as="targetPoint" />
          </mxGeometry>
        </mxCell>
        <mxCell id="y4YscZzIlFFjTKctuAkd-12" value="" style="endArrow=diamondThin;endFill=0;endSize=24;html=1;rounded=0;exitX=0.5;exitY=0;exitDx=0;exitDy=0;entryX=0.506;entryY=0.981;entryDx=0;entryDy=0;entryPerimeter=0;" parent="1" source="y4YscZzIlFFjTKctuAkd-52" target="y4YscZzIlFFjTKctuAkd-34" edge="1">
          <mxGeometry width="160" relative="1" as="geometry">
            <mxPoint x="138.96000000000004" y="160" as="sourcePoint" />
            <mxPoint x="490" y="27" as="targetPoint" />
            <Array as="points" />
          </mxGeometry>
        </mxCell>
        <mxCell id="mX3pQxSRDZWfbYNJxFJx-2" value="3..4" style="text;html=1;align=center;verticalAlign=middle;resizable=0;points=[];autosize=1;strokeColor=none;fillColor=none;" vertex="1" parent="1">
          <mxGeometry x="490" y="118" width="40" height="30" as="geometry" />
        </mxCell>
      </root>
    </mxGraphModel>
  </diagram>
  <diagram id="BKlEpDC3fkvmiUqrH8EF" name="Страница — 2">
    <mxGraphModel dx="1674" dy="907" grid="1" gridSize="10" guides="1" tooltips="1" connect="1" arrows="1" fold="1" page="1" pageScale="1" pageWidth="827" pageHeight="1169" math="0" shadow="0">
      <root>
        <mxCell id="0" />
        <mxCell id="1" parent="0" />
      </root>
    </mxGraphModel>
  </diagram>
</mxfile>
